_________________________  Visit us at _________________________
  
http://p2pdl.com  ____________________________  http://p2pdl.com


The Last Tycoon 2012 BRRip 720p x264 AAC - PRiSTiNE


Original Title: Da Shang Hai
Genre: Adventure | Drama | Romance
Plot: Set in Shanghais Gangster era of the early 1900s, THE LAST TYCOON tells the tale of, a young man
who is set up by the chief of police and must leave the life he knows and the woman he loves, to start
over again. Making his way up the ladder of Shanghais criminal underworld to become on the most powerful
mob bosses in Shanghais history.
Director: Jing Wong
Stars: Yun-Fat Chow, Xiaoming Huang, Sammo Hung Kam-Bo.
Rated: N/a.


IMDb: 
http://www.imdb.com/title/tt2458314/

Trailer:


Format                         : MPEG-4
File size                      : 696 MiB
Duration                       : 1h 58mn
Overall bit rate               : 820 Kbps
Video Format                   : AVC
Video Bit rate                 : 733 Kbps
Width                          : 1 280 pixels
Height                         : 532 pixels
Display aspect ratio           : 2.40:1
Frame rate mode                : Constant
Frame rate                     : 24.000 fps
Stream size                    : 623 MiB (89%)
Writing library                : x264 core 129 r2245
Audio Format                   : AAC
Duration                       : 1h 58mn
Audio Bit rate                 : 83.7 Kbps
Channel(s)                     : 2 channels
Channel positions              : Front: L R
Sampling rate                  : 48.0 KHz
Stream size                    : 71.1 MiB (10%)
Language                       : Chinese
Subtitle                       : Yes(English)
Source                         : BluRay.720p.DTS.2Audio.x264-CHD(Thanks)

Screenshots:
 
http://cdn.piczend.com/images/GQDJAXYB/1362885843_tinybaythelasttycoon201.jpg


----------------------------------------------------------------------------------------------------


Encoded using revolutionary 10bit encoding, which enables us to provide you more crispier and
sharper images at small sizes, just make sure you follow our instructions without a fault.
Recommend to you to use latest version of VLC player. Install K-Lite Codec Pack or shark007 codecs
in case of any kind of problem in playback (For non-VLC Media Player users). Alternatively, install
Core AVC codecs, the fastest decoder that there is coupled with Community Center Codec Pack and play
on Windows Media Player Classic.

Encoder Notes: Looking For Early Access To Anything You Can Provide DVDScr, R5, DVDR, BluRay, Direct
Audio, Early Music Releases, Seedboxes, Dedicated Servers anything u can provide, Advance / Promo CDs/
DVDs. If You Got anything to offer contact me at "prg@hush.com".